<svg xmlns="http://www.w3.org/2000/svg" width="291" height="322" viewBox="0 0 291 322" fill="none">
<path d="M218 257L147 312.5C147 312.5 89.5 276.5 62.9998 251.5C36.4995 226.5 24.0537 212.691 14.4998 180.5C5.61071 150.549 4.80444 130.199 14.4998 100.5C28.2977 58.2328 52.7066 35.4857 93.9998 19C131.719 3.94094 160.399 3.64573 198 19C240.608 36.3994 264.85 61.7481 277.5 106C286.853 138.721 285.358 161.491 272.5 193C260.096 223.394 218 257 218 257Z" fill="#05616E" stroke="#05616E" stroke-width="15"/>
<path d="M236.221 45.6417C256.502 64.357 270.881 86.4527 276.679 113.378C285.779 155.634 276.091 193.467 248.675 226.84C237.801 240.078 224.688 250.746 210.484 260.102C198.616 267.919 188.177 277.43 177.504 286.7C169.391 293.745 161.104 300.598 152.703 307.298C146.107 312.557 143.475 312.41 136.992 307.122C129.836 301.286 122.666 295.462 115.669 289.438C99.4493 275.472 82.2195 262.826 65.1691 249.916C39.9168 230.795 21.4391 206.613 13.0448 175.508C8.46823 158.549 8.00057 141.445 10.5122 124.118C13.5776 102.971 21.3279 83.7098 34.0863 66.6874C56.2245 37.1504 85.4828 19.1165 122.114 12.9755C144.237 9.26665 165.902 10.8055 187.154 17.3776C205.472 23.0424 221.675 32.748 236.221 45.6417ZM137.177 289.587C138.611 290.787 140.105 291.923 141.464 293.203C143.725 295.332 145.75 295.407 148.115 293.195C153.062 288.565 158.081 284.001 163.237 279.606C175.858 268.848 188.133 257.659 202.075 248.54C219.06 237.431 233.754 223.973 245.191 207.027C262.618 181.207 268.03 152.843 263.161 122.434C259.689 100.751 250.085 81.6666 235.326 65.5718C212.833 41.0432 184.511 27.7889 151.367 25.6348C127.523 24.0851 104.969 29.213 84.0874 41.2378C69.6102 49.5744 56.7768 59.843 47.1289 73.5002C34.5497 91.3066 26.1031 110.761 24.2265 132.915C22.6639 151.362 25.0032 169.083 31.9053 186.115C41.1628 208.96 56.9009 226.71 76.4796 241.35C83.0402 246.255 90.4148 249.948 96.6807 255.249C110.065 266.571 123.419 277.931 137.177 289.587Z" fill="#FF83D1"/>
<path d="M102.242 154.438C106.622 149.247 110.362 143.875 114.754 138.993C131.36 120.53 161.612 120.901 177.722 142.563C185.347 152.818 193.603 162.465 202.497 171.62C208.715 178.02 213.086 185.373 214.365 194.53C216.115 207.059 207.034 223.347 195.212 228.349C183.175 233.443 172.18 231.113 161.667 224.228C156.674 220.959 151.715 217.769 145.352 217.631C139.151 217.496 133.995 219.879 129.08 223.22C123.115 227.274 116.755 230.491 109.487 231.217C98.0322 232.361 88.3828 228.541 81.654 219.158C71.2668 204.674 73.2982 185.608 86.2491 171.983C91.6464 166.305 97.034 160.622 102.242 154.438ZM112.516 165.03C107.764 171.429 102.202 177.113 96.7088 182.848C91.764 188.011 89.9906 194.138 90.3787 201.136C90.8415 209.479 98.3171 216.682 106.715 216.773C111.873 216.83 116.113 214.708 120.272 211.851C136.584 200.643 153.086 199.35 169.677 211.386C172.142 213.175 174.795 214.685 177.663 215.73C187.554 219.336 199.221 211.418 199.52 200.883C199.703 194.452 197.916 188.633 193.66 183.716C190.984 180.625 188.215 177.611 185.441 174.605C178.379 166.951 172.015 158.731 165.572 150.561C156.247 138.74 139.8 136.923 128.127 146.444C121.929 151.5 117.674 158.355 112.516 165.03Z" fill="#FF83D1"/>
<path d="M124.814 117.513C112.955 122.272 102.932 120.306 94.2634 111.215C82.8947 99.2919 78.4154 85.1775 82.5861 69.0312C85.5424 57.5862 92.9947 50.0042 104.782 47.6694C116.923 45.2644 126.642 49.9486 133.807 59.6359C143.77 73.1082 144.427 93.745 135.697 108.022C133.134 112.213 129.429 115.21 124.814 117.513ZM121.033 102.726C127.894 94.307 128.793 79.1102 122.831 70.1113C120.764 66.9901 118.395 64.0388 114.627 62.7763C106.363 60.0074 97.0271 66.5786 96.1529 75.865C95.1675 86.3323 98.5472 95.147 106.482 102.136C111.391 106.46 115.093 106.697 121.033 102.726Z" fill="#FF83D1"/>
<path d="M182.07 47.4929C194.977 48.8864 204.997 58.2441 207.378 71.8466C209.92 86.3641 206.043 99.4979 196.371 110.555C185.22 123.303 160.176 125.925 150.785 102.453C144.927 87.8143 147.049 73.6164 155.422 60.6805C161.385 51.4687 170.572 47.1039 182.07 47.4929ZM182.539 103.278C192.261 96.1748 196.244 80.5035 191.046 69.8086C187.068 61.6232 177.079 59.8168 170.51 66.0946C162.813 73.4507 160.291 87.5019 164.974 96.9452C168.967 104.998 174.156 106.999 182.539 103.278Z" fill="#FF83D1"/>
<path d="M76.7346 103.299C87.0347 110.645 93.4974 120.161 95.0782 132.593C96.9431 147.258 86.8036 168.847 66.0303 167.94C58.4227 167.607 51.7797 164.566 46.773 159.049C35.589 146.725 32.3504 132.258 37.5767 116.425C42.3919 101.837 61.8833 93.1687 76.7346 103.299ZM52.1528 120.214C49.6874 124.324 49.5014 128.848 49.822 133.438C50.4129 141.898 56.5187 150.07 63.8523 152.307C69.1681 153.928 73.504 152.5 76.7838 148.05C85.6916 135.965 77.5777 119.32 67.3284 115.248C60.989 112.729 56.6684 114.043 52.1528 120.214Z" fill="#FF83D1"/>
<path d="M245.177 106.875C254.192 117.024 255.102 128.72 252.114 140.924C250.21 148.696 246.807 155.876 240.226 161.071C223.166 174.538 200.531 166.779 195.105 145.672C190.788 128.88 201.25 106.384 217.934 100.936C228.316 97.5471 237.188 99.0859 245.177 106.875ZM216.711 118.368C210.896 124.025 208.39 130.885 209.08 138.975C209.645 145.597 213.821 151.35 219.474 153.074C223.85 154.408 230.233 151.698 233.95 146.538C238.915 139.646 240.143 131.865 237.578 123.875C234.261 113.542 224.966 111.057 216.711 118.368Z" fill="#FF83D1"/>
<path d="M150.992 261.676C143.504 264.578 138.216 263.297 133.912 257.729C129.336 251.81 128.915 244.292 132.854 238.847C136.052 234.427 141.395 232.685 147.204 234.169C153.263 235.716 158.029 240.483 158.527 245.694C159.162 252.356 157.264 257.919 150.992 261.676Z" fill="#FF83D1"/>
<mask id="mask0_147_304" style="mask-type:alpha" maskUnits="userSpaceOnUse" x="9" y="11" width="271" height="301">
<path d="M236.221 45.6417C256.502 64.357 270.881 86.4527 276.679 113.378C285.779 155.634 276.091 193.467 248.675 226.84C237.801 240.078 224.688 250.746 210.484 260.102C198.616 267.919 188.177 277.43 177.504 286.7C169.391 293.745 161.104 300.598 152.703 307.298C146.107 312.557 143.475 312.41 136.992 307.122C129.836 301.286 122.666 295.462 115.669 289.438C99.4493 275.472 82.2195 262.826 65.1691 249.916C39.9168 230.795 21.4391 206.613 13.0448 175.508C8.46823 158.549 8.00057 141.445 10.5122 124.118C13.5776 102.971 21.3279 83.7098 34.0863 66.6874C56.2245 37.1504 85.4828 19.1165 122.114 12.9755C144.237 9.26665 165.902 10.8055 187.154 17.3776C205.472 23.0424 221.675 32.748 236.221 45.6417ZM137.177 289.587C138.611 290.787 140.105 291.923 141.464 293.203C143.725 295.332 145.75 295.407 148.115 293.195C153.062 288.565 158.081 284.001 163.237 279.606C175.858 268.848 188.133 257.659 202.075 248.54C219.06 237.431 233.754 223.973 245.191 207.027C262.618 181.207 268.03 152.843 263.161 122.434C259.689 100.751 250.085 81.6666 235.326 65.5718C212.833 41.0432 184.511 27.7889 151.367 25.6348C127.523 24.0851 104.969 29.213 84.0874 41.2378C69.6102 49.5744 56.7768 59.843 47.1289 73.5002C34.5497 91.3066 26.1031 110.761 24.2265 132.915C22.6639 151.362 25.0032 169.083 31.9053 186.115C41.1628 208.96 56.9009 226.71 76.4796 241.35C83.0402 246.255 90.4148 249.948 96.6807 255.249C110.065 266.571 123.419 277.931 137.177 289.587Z" fill="#FF83D1"/>
<path d="M102.242 154.438C106.622 149.247 110.362 143.875 114.754 138.993C131.36 120.53 161.612 120.901 177.722 142.563C185.347 152.818 193.603 162.465 202.497 171.62C208.715 178.02 213.086 185.373 214.365 194.53C216.115 207.059 207.034 223.347 195.212 228.349C183.175 233.443 172.18 231.113 161.667 224.228C156.674 220.959 151.715 217.769 145.352 217.631C139.151 217.496 133.995 219.879 129.08 223.22C123.115 227.274 116.755 230.491 109.487 231.217C98.0322 232.361 88.3828 228.541 81.654 219.158C71.2668 204.674 73.2982 185.608 86.2491 171.983C91.6464 166.305 97.034 160.622 102.242 154.438ZM112.516 165.03C107.764 171.429 102.202 177.113 96.7088 182.848C91.764 188.011 89.9906 194.138 90.3787 201.136C90.8415 209.479 98.3171 216.682 106.715 216.773C111.873 216.83 116.113 214.708 120.272 211.851C136.584 200.643 153.086 199.35 169.677 211.386C172.142 213.175 174.795 214.685 177.663 215.73C187.554 219.336 199.221 211.418 199.52 200.883C199.703 194.452 197.916 188.633 193.66 183.716C190.984 180.625 188.215 177.611 185.441 174.605C178.379 166.951 172.015 158.731 165.572 150.561C156.247 138.74 139.8 136.923 128.127 146.444C121.929 151.5 117.674 158.355 112.516 165.03Z" fill="#FF83D1"/>
<path d="M124.814 117.513C112.955 122.272 102.932 120.306 94.2634 111.215C82.8947 99.2919 78.4154 85.1775 82.5861 69.0312C85.5424 57.5862 92.9947 50.0042 104.782 47.6694C116.923 45.2644 126.642 49.9486 133.807 59.6359C143.77 73.1082 144.427 93.745 135.697 108.022C133.134 112.213 129.429 115.21 124.814 117.513ZM121.033 102.726C127.894 94.307 128.793 79.1102 122.831 70.1113C120.764 66.9901 118.395 64.0388 114.627 62.7763C106.363 60.0074 97.0271 66.5786 96.1529 75.865C95.1675 86.3323 98.5472 95.147 106.482 102.136C111.391 106.46 115.093 106.697 121.033 102.726Z" fill="#FF83D1"/>
<path d="M182.07 47.4929C194.977 48.8864 204.997 58.2441 207.378 71.8466C209.92 86.3641 206.043 99.4979 196.371 110.555C185.22 123.303 160.176 125.925 150.785 102.453C144.927 87.8143 147.049 73.6164 155.422 60.6805C161.385 51.4687 170.572 47.1039 182.07 47.4929ZM182.539 103.278C192.261 96.1748 196.244 80.5035 191.046 69.8086C187.068 61.6232 177.079 59.8168 170.51 66.0946C162.813 73.4507 160.291 87.5019 164.974 96.9452C168.967 104.998 174.156 106.999 182.539 103.278Z" fill="#FF83D1"/>
<path d="M76.7346 103.299C87.0347 110.645 93.4974 120.161 95.0782 132.593C96.9431 147.258 86.8036 168.847 66.0303 167.94C58.4227 167.607 51.7797 164.566 46.773 159.049C35.589 146.725 32.3504 132.258 37.5767 116.425C42.3919 101.837 61.8833 93.1687 76.7346 103.299ZM52.1528 120.214C49.6874 124.324 49.5014 128.848 49.822 133.438C50.4129 141.898 56.5187 150.07 63.8523 152.307C69.1681 153.928 73.504 152.5 76.7838 148.05C85.6916 135.965 77.5777 119.32 67.3284 115.248C60.989 112.729 56.6684 114.043 52.1528 120.214Z" fill="#FF83D1"/>
<path d="M245.177 106.875C254.192 117.024 255.102 128.72 252.114 140.924C250.21 148.696 246.807 155.876 240.226 161.071C223.166 174.538 200.531 166.779 195.105 145.672C190.788 128.88 201.25 106.384 217.934 100.936C228.316 97.5471 237.188 99.0859 245.177 106.875ZM216.711 118.368C210.896 124.025 208.39 130.885 209.08 138.975C209.645 145.597 213.821 151.35 219.474 153.074C223.85 154.408 230.233 151.698 233.95 146.538C238.915 139.646 240.143 131.865 237.578 123.875C234.261 113.542 224.966 111.057 216.711 118.368Z" fill="#FF83D1"/>
<path d="M150.992 261.676C143.504 264.578 138.216 263.297 133.912 257.729C129.336 251.81 128.915 244.292 132.854 238.847C136.052 234.427 141.395 232.685 147.204 234.169C153.263 235.716 158.029 240.483 158.527 245.694C159.162 252.356 157.264 257.919 150.992 261.676Z" fill="#FF83D1"/>
</mask>
<g mask="url(#mask0_147_304)">
<path d="M34.5 169.5L-18.5 196.5L-1 223.5L110 401.5L253.5 344L275 236.5L265.5 190.5L228 150.5L180.5 104.5H110L78 137.5L34.5 169.5Z" fill="#FDCD7B" fill-opacity="0.25"/>
<path d="M36 179L-17 206L0.5 233L111.5 411L255 353.5L276.5 246L267 200L229.5 160L182 114H111.5L79.5 147L36 179Z" fill="#FDCD7B" fill-opacity="0.5"/>
<path d="M36 217L-17 244L0.5 271L111.5 449L255 391.5L276.5 284L267 238L229.5 198L182 152H111.5L79.5 185L36 217Z" fill="#FDCD7B" fill-opacity="0.75"/>
<path d="M36 276L-17 303L0.5 330L111.5 508L255 450.5L276.5 343L267 297L229.5 257L182 211H111.5L79.5 244L36 276Z" fill="#FDCD7B"/>
</g>
</svg>